<mxfile host="65bd71144e">
    <diagram name="Page-1" id="e56a1550-8fbb-45ad-956c-1786394a9013">
        <mxGraphModel dx="714" dy="469" grid="1" gridSize="10" guides="1" tooltips="1" connect="1" arrows="1" fold="1" page="1" pageScale="1" pageWidth="1100" pageHeight="850" background="none" math="0" shadow="0">
            <root>
                <mxCell id="0"/>
                <mxCell id="1" parent="0"/>
                <mxCell id="3rvUQVWXYSZ7Kkv7UA1M-1" value="User" style="swimlane;childLayout=stackLayout;horizontal=1;startSize=30;horizontalStack=0;rounded=1;fontSize=14;fontStyle=0;strokeWidth=2;resizeParent=0;resizeLast=1;shadow=0;dashed=0;align=center;fillColor=#182830;strokeColor=#182830;arcSize=0;fontFamily=Poppins;fontSource=https%3A%2F%2Ffonts.googleapis.com%2Fcss%3Ffamily%3DPoppins;fontColor=#FFFFFF;swimlaneLine=1;glass=0;sketch=0;" parent="1" vertex="1">
                    <mxGeometry x="460" y="270" width="160" height="130" as="geometry">
                        <mxRectangle x="460" y="330" width="70" height="30" as="alternateBounds"/>
                    </mxGeometry>
                </mxCell>
                <mxCell id="3rvUQVWXYSZ7Kkv7UA1M-2" value="ID&#10;Email&#10;First name&#10;Last name&#10;Country&#10;City" style="align=left;strokeColor=#666666;fillColor=#f5f5f5;spacingLeft=4;fontSize=12;verticalAlign=top;resizable=0;rotatable=0;part=1;fontFamily=Poppins;fontSource=https%3A%2F%2Ffonts.googleapis.com%2Fcss%3Ffamily%3DPoppins;fontColor=#333333;" parent="3rvUQVWXYSZ7Kkv7UA1M-1" vertex="1">
                    <mxGeometry y="30" width="160" height="100" as="geometry"/>
                </mxCell>
                <mxCell id="3rvUQVWXYSZ7Kkv7UA1M-3" value="Instrument" style="swimlane;childLayout=stackLayout;horizontal=1;startSize=30;horizontalStack=0;rounded=0;fontSize=14;fontStyle=0;strokeWidth=2;resizeParent=0;resizeLast=1;shadow=0;dashed=0;align=center;fillColor=#182830;strokeColor=#182830;arcSize=0;fontFamily=Poppins;fontSource=https%3A%2F%2Ffonts.googleapis.com%2Fcss%3Ffamily%3DPoppins;fontColor=#FFFFFF;swimlaneLine=1;glass=0;sketch=0;" parent="1" vertex="1">
                    <mxGeometry x="460" y="510" width="160" height="70" as="geometry"/>
                </mxCell>
                <mxCell id="3rvUQVWXYSZ7Kkv7UA1M-4" value="ID&#10;Name" style="align=left;strokeColor=#666666;fillColor=#f5f5f5;spacingLeft=4;fontSize=12;verticalAlign=top;resizable=0;rotatable=0;part=1;fontFamily=Poppins;fontSource=https%3A%2F%2Ffonts.googleapis.com%2Fcss%3Ffamily%3DPoppins;fontColor=#333333;" parent="3rvUQVWXYSZ7Kkv7UA1M-3" vertex="1">
                    <mxGeometry y="30" width="160" height="40" as="geometry"/>
                </mxCell>
                <mxCell id="3rvUQVWXYSZ7Kkv7UA1M-5" value="Genre" style="swimlane;childLayout=stackLayout;horizontal=1;startSize=30;horizontalStack=0;rounded=0;fontSize=14;fontStyle=0;strokeWidth=2;resizeParent=0;resizeLast=1;shadow=0;dashed=0;align=center;fillColor=#182830;strokeColor=#182830;arcSize=0;fontFamily=Poppins;fontSource=https%3A%2F%2Ffonts.googleapis.com%2Fcss%3Ffamily%3DPoppins;fontColor=#FFFFFF;swimlaneLine=1;glass=0;sketch=0;" parent="1" vertex="1">
                    <mxGeometry x="800" y="270" width="160" height="70" as="geometry"/>
                </mxCell>
                <mxCell id="3rvUQVWXYSZ7Kkv7UA1M-6" value="ID&#10;Name" style="align=left;strokeColor=#666666;fillColor=#f5f5f5;spacingLeft=4;fontSize=12;verticalAlign=top;resizable=0;rotatable=0;part=1;fontFamily=Poppins;fontSource=https%3A%2F%2Ffonts.googleapis.com%2Fcss%3Ffamily%3DPoppins;fontColor=#333333;" parent="3rvUQVWXYSZ7Kkv7UA1M-5" vertex="1">
                    <mxGeometry y="30" width="160" height="40" as="geometry"/>
                </mxCell>
                <mxCell id="3rvUQVWXYSZ7Kkv7UA1M-9" value="Studio" style="swimlane;childLayout=stackLayout;horizontal=1;startSize=30;horizontalStack=0;rounded=1;fontSize=14;fontStyle=0;strokeWidth=2;resizeParent=0;resizeLast=1;shadow=0;dashed=0;align=center;fillColor=#182830;strokeColor=#182830;arcSize=0;fontFamily=Poppins;fontSource=https%3A%2F%2Ffonts.googleapis.com%2Fcss%3Ffamily%3DPoppins;fontColor=#FFFFFF;swimlaneLine=1;glass=0;sketch=0;" parent="1" vertex="1">
                    <mxGeometry x="110" y="270" width="160" height="160" as="geometry">
                        <mxRectangle x="460" y="330" width="70" height="30" as="alternateBounds"/>
                    </mxGeometry>
                </mxCell>
                <mxCell id="3rvUQVWXYSZ7Kkv7UA1M-10" value="ID&#10;Name&#10;Email&#10;Phone&#10;Coordinates&#10;Country&#10;City&#10;Booking" style="align=left;strokeColor=#666666;fillColor=#f5f5f5;spacingLeft=4;fontSize=12;verticalAlign=top;resizable=0;rotatable=0;part=1;fontFamily=Poppins;fontSource=https%3A%2F%2Ffonts.googleapis.com%2Fcss%3Ffamily%3DPoppins;fontColor=#333333;" parent="3rvUQVWXYSZ7Kkv7UA1M-9" vertex="1">
                    <mxGeometry y="30" width="160" height="130" as="geometry"/>
                </mxCell>
                <mxCell id="3rvUQVWXYSZ7Kkv7UA1M-11" value="Equipment" style="swimlane;childLayout=stackLayout;horizontal=1;startSize=30;horizontalStack=0;rounded=0;fontSize=14;fontStyle=0;strokeWidth=2;resizeParent=0;resizeLast=1;shadow=0;dashed=0;align=center;fillColor=#182830;strokeColor=#182830;arcSize=0;fontFamily=Poppins;fontSource=https%3A%2F%2Ffonts.googleapis.com%2Fcss%3Ffamily%3DPoppins;fontColor=#FFFFFF;swimlaneLine=1;glass=0;sketch=0;" parent="1" vertex="1">
                    <mxGeometry x="110" y="680" width="160" height="90" as="geometry"/>
                </mxCell>
                <mxCell id="3rvUQVWXYSZ7Kkv7UA1M-12" value="ID&#10;Name&#10;Description" style="align=left;strokeColor=#666666;fillColor=#f5f5f5;spacingLeft=4;fontSize=12;verticalAlign=top;resizable=0;rotatable=0;part=1;fontFamily=Poppins;fontSource=https%3A%2F%2Ffonts.googleapis.com%2Fcss%3Ffamily%3DPoppins;fontColor=#333333;" parent="3rvUQVWXYSZ7Kkv7UA1M-11" vertex="1">
                    <mxGeometry y="30" width="160" height="60" as="geometry"/>
                </mxCell>
                <mxCell id="3rvUQVWXYSZ7Kkv7UA1M-13" value="Room" style="swimlane;childLayout=stackLayout;horizontal=1;startSize=30;horizontalStack=0;rounded=0;fontSize=14;fontStyle=0;strokeWidth=2;resizeParent=0;resizeLast=1;shadow=0;dashed=0;align=center;fillColor=#182830;strokeColor=#182830;arcSize=0;fontFamily=Poppins;fontSource=https%3A%2F%2Ffonts.googleapis.com%2Fcss%3Ffamily%3DPoppins;fontColor=#FFFFFF;swimlaneLine=1;glass=0;sketch=0;" parent="1" vertex="1">
                    <mxGeometry x="110" y="510" width="160" height="90" as="geometry"/>
                </mxCell>
                <mxCell id="3rvUQVWXYSZ7Kkv7UA1M-14" value="ID&#10;Name&#10;Desciption" style="align=left;strokeColor=#666666;fillColor=#f5f5f5;spacingLeft=4;fontSize=12;verticalAlign=top;resizable=0;rotatable=0;part=1;fontFamily=Poppins;fontSource=https%3A%2F%2Ffonts.googleapis.com%2Fcss%3Ffamily%3DPoppins;fontColor=#333333;" parent="3rvUQVWXYSZ7Kkv7UA1M-13" vertex="1">
                    <mxGeometry y="30" width="160" height="60" as="geometry"/>
                </mxCell>
                <mxCell id="3rvUQVWXYSZ7Kkv7UA1M-15" value="" style="fontSize=12;html=1;endArrow=ERzeroToMany;startArrow=ERmandOne;rounded=0;fontColor=#182830;exitX=0;exitY=0;exitDx=0;exitDy=0;entryX=1;entryY=0;entryDx=0;entryDy=0;" parent="1" source="3rvUQVWXYSZ7Kkv7UA1M-2" target="3rvUQVWXYSZ7Kkv7UA1M-10" edge="1">
                    <mxGeometry width="100" height="100" relative="1" as="geometry">
                        <mxPoint x="290" y="550" as="sourcePoint"/>
                        <mxPoint x="390" y="450" as="targetPoint"/>
                    </mxGeometry>
                </mxCell>
                <mxCell id="3rvUQVWXYSZ7Kkv7UA1M-17" value="Owns" style="edgeLabel;html=1;align=center;verticalAlign=middle;resizable=0;points=[];fontSize=13;fontColor=#182830;labelBackgroundColor=#FFFFFF;" parent="3rvUQVWXYSZ7Kkv7UA1M-15" vertex="1" connectable="0">
                    <mxGeometry x="-0.5514" relative="1" as="geometry">
                        <mxPoint x="10" as="offset"/>
                    </mxGeometry>
                </mxCell>
                <mxCell id="3rvUQVWXYSZ7Kkv7UA1M-18" value="Belongs to" style="edgeLabel;html=1;align=center;verticalAlign=middle;resizable=0;points=[];fontSize=13;fontColor=#182830;labelBackgroundColor=#FFFFFF;" parent="3rvUQVWXYSZ7Kkv7UA1M-15" vertex="1" connectable="0">
                    <mxGeometry x="0.6955" relative="1" as="geometry">
                        <mxPoint x="22" as="offset"/>
                    </mxGeometry>
                </mxCell>
                <mxCell id="3rvUQVWXYSZ7Kkv7UA1M-19" value="" style="fontSize=12;html=1;endArrow=ERzeroToMany;startArrow=ERmandOne;rounded=0;fontColor=#182830;exitX=0.5;exitY=1;exitDx=0;exitDy=0;entryX=0.5;entryY=0;entryDx=0;entryDy=0;" parent="1" source="3rvUQVWXYSZ7Kkv7UA1M-10" target="3rvUQVWXYSZ7Kkv7UA1M-13" edge="1">
                    <mxGeometry width="100" height="100" relative="1" as="geometry">
                        <mxPoint x="460" y="450" as="sourcePoint"/>
                        <mxPoint x="270" y="450" as="targetPoint"/>
                    </mxGeometry>
                </mxCell>
                <mxCell id="3rvUQVWXYSZ7Kkv7UA1M-20" value="Has" style="edgeLabel;html=1;align=center;verticalAlign=middle;resizable=0;points=[];fontSize=13;fontColor=#182830;labelBackgroundColor=#FFFFFF;" parent="3rvUQVWXYSZ7Kkv7UA1M-19" vertex="1" connectable="0">
                    <mxGeometry x="-0.5514" relative="1" as="geometry">
                        <mxPoint y="3" as="offset"/>
                    </mxGeometry>
                </mxCell>
                <mxCell id="3rvUQVWXYSZ7Kkv7UA1M-21" value="Belongs to" style="edgeLabel;html=1;align=center;verticalAlign=middle;resizable=0;points=[];fontSize=13;fontColor=#182830;labelBackgroundColor=#FFFFFF;" parent="3rvUQVWXYSZ7Kkv7UA1M-19" vertex="1" connectable="0">
                    <mxGeometry x="0.6955" relative="1" as="geometry">
                        <mxPoint x="2" y="-17" as="offset"/>
                    </mxGeometry>
                </mxCell>
                <mxCell id="3rvUQVWXYSZ7Kkv7UA1M-22" value="" style="fontSize=12;html=1;endArrow=ERzeroToMany;startArrow=ERmandOne;rounded=0;fontColor=#182830;exitX=0.5;exitY=1;exitDx=0;exitDy=0;entryX=0.5;entryY=0;entryDx=0;entryDy=0;edgeStyle=orthogonalEdgeStyle;startFill=0;endFill=0;" parent="1" source="3rvUQVWXYSZ7Kkv7UA1M-14" target="3rvUQVWXYSZ7Kkv7UA1M-11" edge="1">
                    <mxGeometry width="100" height="100" relative="1" as="geometry">
                        <mxPoint x="190" y="586.0000000000002" as="sourcePoint"/>
                        <mxPoint x="190" y="665.9999999999998" as="targetPoint"/>
                    </mxGeometry>
                </mxCell>
                <mxCell id="3rvUQVWXYSZ7Kkv7UA1M-23" value="Has" style="edgeLabel;html=1;align=center;verticalAlign=middle;resizable=0;points=[];fontSize=13;fontColor=#182830;labelBackgroundColor=#FFFFFF;" parent="3rvUQVWXYSZ7Kkv7UA1M-22" vertex="1" connectable="0">
                    <mxGeometry x="-0.5514" relative="1" as="geometry">
                        <mxPoint y="8" as="offset"/>
                    </mxGeometry>
                </mxCell>
                <mxCell id="3rvUQVWXYSZ7Kkv7UA1M-24" value="Belongs to" style="edgeLabel;html=1;align=center;verticalAlign=middle;resizable=0;points=[];fontSize=13;fontColor=#182830;labelBackgroundColor=#FFFFFF;" parent="3rvUQVWXYSZ7Kkv7UA1M-22" vertex="1" connectable="0">
                    <mxGeometry x="0.6955" relative="1" as="geometry">
                        <mxPoint x="2" y="-17" as="offset"/>
                    </mxGeometry>
                </mxCell>
                <mxCell id="3rvUQVWXYSZ7Kkv7UA1M-25" value="" style="fontSize=12;html=1;endArrow=ERzeroToMany;endFill=1;startArrow=ERzeroToMany;rounded=0;fontColor=#182830;entryX=0.5;entryY=1;entryDx=0;entryDy=0;exitX=0.5;exitY=0;exitDx=0;exitDy=0;" parent="1" source="3rvUQVWXYSZ7Kkv7UA1M-3" target="3rvUQVWXYSZ7Kkv7UA1M-2" edge="1">
                    <mxGeometry width="100" height="100" relative="1" as="geometry">
                        <mxPoint x="370" y="560" as="sourcePoint"/>
                        <mxPoint x="470" y="460" as="targetPoint"/>
                    </mxGeometry>
                </mxCell>
                <mxCell id="3rvUQVWXYSZ7Kkv7UA1M-26" value="Plays" style="edgeLabel;html=1;align=center;verticalAlign=middle;resizable=0;points=[];fontSize=13;fontColor=#182830;labelBackgroundColor=#FFFFFF;" parent="3rvUQVWXYSZ7Kkv7UA1M-25" vertex="1" connectable="0">
                    <mxGeometry x="0.3104" y="1" relative="1" as="geometry">
                        <mxPoint y="-8" as="offset"/>
                    </mxGeometry>
                </mxCell>
                <mxCell id="3rvUQVWXYSZ7Kkv7UA1M-27" value="Played by" style="edgeLabel;html=1;align=center;verticalAlign=middle;resizable=0;points=[];fontSize=13;fontColor=#182830;labelBackgroundColor=#FFFFFF;" parent="3rvUQVWXYSZ7Kkv7UA1M-25" vertex="1" connectable="0">
                    <mxGeometry x="-0.326" y="1" relative="1" as="geometry">
                        <mxPoint y="6" as="offset"/>
                    </mxGeometry>
                </mxCell>
                <mxCell id="3rvUQVWXYSZ7Kkv7UA1M-28" value="" style="fontSize=12;html=1;endArrow=ERzeroToMany;startArrow=ERzeroToMany;rounded=0;fontColor=#182830;exitX=0;exitY=0;exitDx=0;exitDy=0;entryX=1;entryY=0;entryDx=0;entryDy=0;startFill=0;" parent="1" source="3rvUQVWXYSZ7Kkv7UA1M-6" target="3rvUQVWXYSZ7Kkv7UA1M-2" edge="1">
                    <mxGeometry width="100" height="100" relative="1" as="geometry">
                        <mxPoint x="830" y="410" as="sourcePoint"/>
                        <mxPoint x="640" y="410" as="targetPoint"/>
                    </mxGeometry>
                </mxCell>
                <mxCell id="3rvUQVWXYSZ7Kkv7UA1M-29" value="Preferred by" style="edgeLabel;html=1;align=center;verticalAlign=middle;resizable=0;points=[];fontSize=13;fontColor=#182830;labelBackgroundColor=#FFFFFF;" parent="3rvUQVWXYSZ7Kkv7UA1M-28" vertex="1" connectable="0">
                    <mxGeometry x="-0.5514" relative="1" as="geometry">
                        <mxPoint x="-18" as="offset"/>
                    </mxGeometry>
                </mxCell>
                <mxCell id="3rvUQVWXYSZ7Kkv7UA1M-30" value="Prefers" style="edgeLabel;html=1;align=center;verticalAlign=middle;resizable=0;points=[];fontSize=13;fontColor=#182830;labelBackgroundColor=#FFFFFF;" parent="3rvUQVWXYSZ7Kkv7UA1M-28" vertex="1" connectable="0">
                    <mxGeometry x="0.6955" relative="1" as="geometry">
                        <mxPoint x="17" as="offset"/>
                    </mxGeometry>
                </mxCell>
                <mxCell id="3rvUQVWXYSZ7Kkv7UA1M-31" value="Equipment type" style="swimlane;childLayout=stackLayout;horizontal=1;startSize=30;horizontalStack=0;rounded=0;fontSize=14;fontStyle=0;strokeWidth=2;resizeParent=0;resizeLast=1;shadow=0;dashed=0;align=center;fillColor=#182830;strokeColor=#182830;arcSize=0;fontFamily=Poppins;fontSource=https%3A%2F%2Ffonts.googleapis.com%2Fcss%3Ffamily%3DPoppins;fontColor=#FFFFFF;swimlaneLine=1;glass=0;sketch=0;" parent="1" vertex="1">
                    <mxGeometry x="110" y="840" width="160" height="70" as="geometry"/>
                </mxCell>
                <mxCell id="3rvUQVWXYSZ7Kkv7UA1M-32" value="ID&#10;Name" style="align=left;strokeColor=#666666;fillColor=#f5f5f5;spacingLeft=4;fontSize=12;verticalAlign=top;resizable=0;rotatable=0;part=1;fontFamily=Poppins;fontSource=https%3A%2F%2Ffonts.googleapis.com%2Fcss%3Ffamily%3DPoppins;fontColor=#333333;" parent="3rvUQVWXYSZ7Kkv7UA1M-31" vertex="1">
                    <mxGeometry y="30" width="160" height="40" as="geometry"/>
                </mxCell>
                <mxCell id="3rvUQVWXYSZ7Kkv7UA1M-42" value="" style="fontSize=12;html=1;endArrow=ERzeroToMany;startArrow=ERmandOne;rounded=0;fontColor=#182830;exitX=0.5;exitY=0;exitDx=0;exitDy=0;edgeStyle=orthogonalEdgeStyle;entryX=0.5;entryY=1;entryDx=0;entryDy=0;endFill=0;" parent="1" source="3rvUQVWXYSZ7Kkv7UA1M-31" target="3rvUQVWXYSZ7Kkv7UA1M-12" edge="1">
                    <mxGeometry width="100" height="100" relative="1" as="geometry">
                        <mxPoint x="60" y="790" as="sourcePoint"/>
                        <mxPoint x="160" y="780" as="targetPoint"/>
                    </mxGeometry>
                </mxCell>
                <mxCell id="3rvUQVWXYSZ7Kkv7UA1M-43" value="Has" style="edgeLabel;html=1;align=center;verticalAlign=middle;resizable=0;points=[];fontSize=13;fontColor=#182830;labelBackgroundColor=#FFFFFF;" parent="3rvUQVWXYSZ7Kkv7UA1M-42" vertex="1" connectable="0">
                    <mxGeometry x="-0.5514" relative="1" as="geometry">
                        <mxPoint y="-2" as="offset"/>
                    </mxGeometry>
                </mxCell>
                <mxCell id="3rvUQVWXYSZ7Kkv7UA1M-44" value="Belongs to" style="edgeLabel;html=1;align=center;verticalAlign=middle;resizable=0;points=[];fontSize=13;fontColor=#182830;labelBackgroundColor=#FFFFFF;" parent="3rvUQVWXYSZ7Kkv7UA1M-42" vertex="1" connectable="0">
                    <mxGeometry x="0.6955" relative="1" as="geometry">
                        <mxPoint x="2" y="13" as="offset"/>
                    </mxGeometry>
                </mxCell>
            </root>
        </mxGraphModel>
    </diagram>
</mxfile>